<svg xmlns="http://www.w3.org/2000/svg" viewBox="0 0 6940 1410" width="6940" height="1410" role="img" aria-label="Contextia">
  <title>Contextia</title>
  
  <g transform="translate(5.0,1349.5) scale(1,-1)">
    <g fill="#1a1815"><path d="M811 663Q811 610 780.5 578.0Q750 546 698 546Q644 546 613.0 579.0Q582 612 582 674V747Q582 810 548.5 845.5Q515 881 458 881Q399 881 354.5 839.0Q310 797 286.0 719.5Q262 642 262 536Q262 404 300.0 313.5Q338 223 403.5 176.5Q469 130 552 130Q643 130 708.0 171.0Q773 212 796 299Q797 303 799.0 304.5Q801 306 803 305Q806 305 807.0 302.5Q808 300 807 296Q788 196 736.5 125.5Q685 55 607.5 18.0Q530 -19 431 -19Q318 -19 228.5 31.0Q139 81 87.0 179.0Q35 277 35 420Q35 557 91.5 664.5Q148 772 247.5 835.0Q347 898 477 898Q585 898 659.0 867.0Q733 836 772.0 783.0Q811 730 811 663Z" transform="translate(0.0,0.0)"/><path d="M502 898Q634 898 736.0 839.0Q838 780 896.0 675.5Q954 571 954 435Q954 301 894.5 198.5Q835 96 730.0 38.0Q625 -20 490 -20Q358 -20 256.5 37.5Q155 95 97.5 197.5Q40 300 40 435Q40 570 99.0 674.0Q158 778 262.5 838.0Q367 898 502 898ZM551 -3Q613 3 652.5 57.0Q692 111 705.5 212.0Q719 313 702 459Q685 607 649.0 702.5Q613 798 561.0 842.5Q509 887 444 880Q380 874 341.0 819.0Q302 764 290.0 663.0Q278 562 295 418Q312 273 348.5 177.5Q385 82 437.0 36.5Q489 -9 551 -3Z" transform="translate(799.0,0.0)"/><path d="M363 884V55Q363 42 368.5 34.0Q374 26 387 24L442 14Q452 12 452 6Q452 0 444 0H41Q38 0 35.5 2.0Q33 4 33 6Q33 9 35.0 10.5Q37 12 43 13L100 24Q113 26 118.5 34.0Q124 42 124 54V785Q124 791 121.0 794.5Q118 798 111 798H46Q41 798 39.0 800.0Q37 802 37 805Q37 808 39.5 809.5Q42 811 45 812L332 892Q341 895 344.5 895.5Q348 896 352 896Q357 896 360.0 892.5Q363 889 363 884ZM343 687 333 697 369 729Q468 818 540.5 858.0Q613 898 676 898Q768 898 819.0 840.5Q870 783 885 661L960 61Q962 45 968.5 35.0Q975 25 990 22L1039 13Q1044 13 1046.0 11.0Q1048 9 1048 6Q1048 4 1046.0 2.0Q1044 0 1040 0H630Q621 0 621 6Q621 12 632 14L689 24Q705 26 711.5 36.0Q718 46 716 61L650 637Q640 718 612.0 755.0Q584 792 528 792Q491 792 455.0 773.5Q419 755 378 718Z" transform="translate(1753.0,0.0)"/><path d="M106 845 19 863Q13 864 11.0 866.0Q9 868 9 871Q9 874 11.0 876.0Q13 878 16 878H104Q110 878 114.5 880.0Q119 882 123 887L316 1077Q321 1082 326.5 1085.0Q332 1088 337 1088Q343 1088 346.5 1084.0Q350 1080 350 1073V231Q350 150 380.5 110.5Q411 71 464 71Q483 71 500.0 76.5Q517 82 532.0 94.5Q547 107 558.5 127.0Q570 147 578 176Q580 182 584.5 182.0Q589 182 587 175Q571 109 542.5 66.5Q514 24 469.5 3.0Q425 -18 361 -18Q245 -18 182.0 37.0Q119 92 119 206V826Q119 835 116.5 839.5Q114 844 106 845ZM276 857 283 878H580Q585 878 587.5 876.5Q590 875 590 870Q590 865 583.5 861.0Q577 857 565 857Z" transform="translate(2751.0,0.0)"/><path d="M840 517Q840 508 834.5 503.0Q829 498 817 498H198V515H585Q602 515 602 534Q602 712 554.5 797.0Q507 882 439 882Q383 882 342.0 843.5Q301 805 278.5 726.0Q256 647 256 525Q256 319 342.0 216.0Q428 113 568 113Q671 113 742.5 170.5Q814 228 822 326Q823 330 825.0 331.5Q827 333 828 333Q830 333 832.0 331.0Q834 329 834 324Q828 225 776.5 147.5Q725 70 640.5 25.0Q556 -20 451 -20Q327 -20 233.5 35.0Q140 90 87.0 189.5Q34 289 34 422Q34 564 87.5 671.0Q141 778 239.0 838.0Q337 898 468 898Q581 898 664.5 848.5Q748 799 794.0 713.0Q840 627 840 517Z" transform="translate(3298.0,0.0)"/><path d="M356 431 369 426 180 133Q153 90 163.0 67.0Q173 44 211 31L253 18Q260 15 263.0 13.5Q266 12 266 9Q266 5 263.0 3.0Q260 1 256 1H16Q11 1 7.5 3.0Q4 5 4 9Q4 12 7.0 14.5Q10 17 18 18Q52 23 75.5 37.0Q99 51 119.5 76.0Q140 101 164 139ZM363 794 561 483 565 477 806 103Q833 62 856.5 41.0Q880 20 900 18Q905 17 907.0 15.0Q909 13 909 9Q909 5 906.0 2.5Q903 0 896 0H456Q449 0 445.0 2.5Q441 5 441 10Q441 13 443.5 15.0Q446 17 453 18L525 29Q553 33 560.0 51.0Q567 69 545 104L352 406L349 411L100 804Q84 831 64.0 843.0Q44 855 26 856Q18 857 14.5 860.5Q11 864 11 868Q11 874 15.0 876.0Q19 878 24 878H444Q449 878 451.5 876.0Q454 874 454 870Q454 867 452.5 865.5Q451 864 444 862L383 852Q365 849 357.0 833.0Q349 817 363 794ZM552 452 543 462 708 730Q737 780 726.5 815.0Q716 850 678 855L633 863Q628 864 626.0 866.0Q624 868 624 871Q624 874 626.5 876.0Q629 878 634 878H873Q878 878 880.5 875.5Q883 873 883 870Q883 868 880.5 866.0Q878 864 870 862Q814 852 788.0 822.0Q762 792 727 733Z" transform="translate(4132.0,0.0)"/><path d="M106 845 19 863Q13 864 11.0 866.0Q9 868 9 871Q9 874 11.0 876.0Q13 878 16 878H104Q110 878 114.5 880.0Q119 882 123 887L316 1077Q321 1082 326.5 1085.0Q332 1088 337 1088Q343 1088 346.5 1084.0Q350 1080 350 1073V231Q350 150 380.5 110.5Q411 71 464 71Q483 71 500.0 76.5Q517 82 532.0 94.5Q547 107 558.5 127.0Q570 147 578 176Q580 182 584.5 182.0Q589 182 587 175Q571 109 542.5 66.5Q514 24 469.5 3.0Q425 -18 361 -18Q245 -18 182.0 37.0Q119 92 119 206V826Q119 835 116.5 839.5Q114 844 106 845ZM276 857 283 878H580Q585 878 587.5 876.5Q590 875 590 870Q590 865 583.5 861.0Q577 857 565 857Z" transform="translate(5004.0,0.0)"/><path d="M367 884V55Q367 42 372.5 34.0Q378 26 391 24L446 14Q452 14 454.0 11.5Q456 9 456 6Q456 4 454.0 2.0Q452 0 448 0H45Q42 0 39.5 2.0Q37 4 37 6Q37 9 39.0 10.5Q41 12 47 13L104 24Q117 26 122.5 34.0Q128 42 128 54V785Q128 791 125.0 794.5Q122 798 115 798H50Q45 798 43.0 800.0Q41 802 41 805Q41 808 43.5 809.5Q46 811 49 812L336 892Q345 895 348.5 895.5Q352 896 356 896Q361 896 364.0 892.5Q367 889 367 884Z" transform="translate(5566.0,0.0)"/><path d="M559 93V102L548 92V736Q548 808 518.0 846.0Q488 884 432 884Q370 884 339.0 853.0Q308 822 308 782V701Q308 651 273.0 617.0Q238 583 182 583Q143 583 117.5 606.5Q92 630 92 678Q92 731 134.0 781.5Q176 832 258.5 865.0Q341 898 461 898Q625 898 706.5 829.5Q788 761 788 635V116Q788 81 800.0 65.5Q812 50 830 50Q848 50 862.0 61.0Q876 72 880 98Q880 101 881.5 102.5Q883 104 885 104Q887 104 888.5 102.5Q890 101 890 98Q890 79 872.5 52.0Q855 25 816.0 3.5Q777 -18 712 -18Q632 -18 595.5 13.0Q559 44 559 93ZM42 194Q42 303 132.0 369.5Q222 436 418 436Q479 436 518.5 423.5Q558 411 592 393L584 386Q550 402 515.0 411.0Q480 420 436 420Q361 420 320.5 370.0Q280 320 280 229Q280 141 319.0 95.5Q358 50 420 50Q462 50 502.5 69.5Q543 89 570 126L581 120Q537 53 460.5 17.5Q384 -18 296 -18Q183 -18 112.5 41.5Q42 101 42 194Z" transform="translate(6005.0,0.0)"/></g>
    <circle cx="5810.0" cy="1166.5" r="143.0" fill="#c0392b"/>
  </g>
</svg>
